<svg width="33" height="33" viewBox="0 0 33 33" fill="none" xmlns="http://www.w3.org/2000/svg">
<path d="M29.3556 9.38231L27.8788 10.8652C26.3051 12.4451 23.7435 12.4451 22.1698 10.8652C20.5961 9.28537 20.5961 6.71343 22.1698 5.13356L23.6466 3.65062C24.4613 2.83181 23.9167 1.86862 22.4482 2.09756C20.9001 2.33856 19.4693 3.06766 18.3645 4.17862C17.4938 5.05505 16.8548 6.13437 16.5052 7.31932C16.1555 8.50426 16.1063 9.75758 16.3618 10.9663L3.9765 23.4032C3.22055 24.165 2.79635 25.1948 2.79635 26.268C2.79635 27.3412 3.22055 28.371 3.9765 29.1328C4.35073 29.5084 4.79543 29.8064 5.2851 30.0098C5.77476 30.2131 6.29976 30.3178 6.82997 30.3178C7.36018 30.3178 7.88517 30.2131 8.37484 30.0098C8.86451 29.8064 9.30921 29.5084 9.68344 29.1328L22.0708 16.6959C23.0544 16.9046 24.0702 16.9102 25.056 16.7124C26.0418 16.5145 26.9768 16.1174 27.8037 15.5454C28.6306 14.9734 29.332 14.2386 29.8648 13.3859C30.3977 12.5333 30.7508 11.5808 30.9024 10.5868C31.1314 9.11212 30.1723 8.5635 29.3556 9.38231ZM7.78181 27.2209C7.25588 27.7489 6.40406 27.7489 5.87812 27.2209C5.35219 26.6929 5.35219 25.839 5.87812 25.311C6.1338 25.0706 6.47308 24.9394 6.82396 24.945C7.17483 24.9507 7.50968 25.0929 7.75742 25.3415C8.00515 25.59 8.14628 25.9253 8.15083 26.2762C8.15539 26.6271 8.02301 26.966 7.78181 27.2209ZM6.43706 9.62981L11.1004 14.3137L13.0041 12.4039L8.34075 7.71993L7.29506 5.71518L3.96619 3.32681L2.0625 5.23668L4.44056 8.58L6.43706 9.62981ZM22.044 19.5649C21.9817 19.5022 21.9076 19.4525 21.826 19.4185C21.7445 19.3846 21.657 19.3671 21.5686 19.3671C21.4802 19.3671 21.3927 19.3846 21.3111 19.4185C21.2296 19.4525 21.1555 19.5022 21.0932 19.5649L18.2387 22.4317C18.1129 22.5588 18.0423 22.7304 18.0423 22.9092C18.0423 23.088 18.1129 23.2596 18.2387 23.3867L24.9727 30.1476C26.0246 31.2015 27.7303 31.2015 28.7801 30.1476C29.832 29.0936 29.832 27.3817 28.7801 26.3257L22.044 19.5649Z" fill="#5162E2"/>
</svg>
