<svg width="18" height="18" viewBox="0 0 18 18" fill="none" xmlns="http://www.w3.org/2000/svg">
<path d="M7.5859 16.3583C8.04101 16.7329 8.51465 17.0763 8.99997 17.4102C9.48537 17.0765 9.95867 16.7332 10.4141 16.3584C10.996 15.8795 11.7736 15.1872 12.5535 14.3342C14.0866 12.6574 15.75 10.228 15.75 7.5C15.75 3.77208 12.7279 0.75 9 0.75C5.27208 0.75 2.25 3.77208 2.25 7.5C2.25 10.2277 3.91343 12.6571 5.44647 14.334C6.22637 15.187 7.00394 15.8794 7.5859 16.3583ZM9 9.9375C7.65381 9.9375 6.5625 8.84619 6.5625 7.5C6.5625 6.15381 7.65381 5.0625 9 5.0625C10.3462 5.0625 11.4375 6.15381 11.4375 7.5C11.4375 8.84619 10.3462 9.9375 9 9.9375Z" fill="#0052D9"/>
</svg>
