<svg width="33" height="33" viewBox="0 0 33 33" fill="none" xmlns="http://www.w3.org/2000/svg">
<path d="M2.47461 16.4996C2.47461 18.363 2.84164 20.2082 3.55476 21.9298C4.26787 23.6515 5.3131 25.2158 6.63076 26.5334C7.94843 27.8511 9.51272 28.8963 11.2343 29.6094C12.9559 30.3225 14.8012 30.6896 16.6646 30.6896C18.5281 30.6896 20.3733 30.3225 22.0949 29.6094C23.8165 28.8963 25.3808 27.8511 26.6985 26.5334C28.0161 25.2158 29.0613 23.6515 29.7745 21.9298C30.4876 20.2082 30.8546 18.363 30.8546 16.4996C30.8546 12.7361 29.3596 9.12687 26.6985 6.46572C24.0373 3.80458 20.428 2.30957 16.6646 2.30957C12.9012 2.30957 9.29191 3.80458 6.63076 6.46572C3.96962 9.12687 2.47461 12.7361 2.47461 16.4996Z" fill="#FF8787"/>
<path d="M16.6653 24.7498C16.1208 24.7498 15.6753 24.3043 15.6753 23.7598V22.7698C15.6753 22.2253 16.1208 21.7798 16.6653 21.7798C17.2098 21.7798 17.6553 22.2253 17.6553 22.7698V23.7598C17.6553 24.3043 17.2098 24.7498 16.6653 24.7498ZM16.6653 19.8823C16.1208 19.8823 15.6753 19.4368 15.6753 18.8923V16.9783C15.6753 16.8133 15.7083 16.6483 15.7908 16.5163L15.8733 16.3678C16.0383 16.0378 16.3848 15.8398 16.7478 15.8398C18.4803 15.8398 19.8828 14.4373 19.8828 12.7048C19.8828 10.9723 18.4803 9.56984 16.7478 9.56984C15.0153 9.56984 13.6128 10.9723 13.6128 12.7048C13.6128 13.2493 13.1673 13.6948 12.6228 13.6948C12.0783 13.6948 11.6328 13.2493 11.6328 12.7048C11.6328 9.88334 13.9263 7.58984 16.7478 7.58984C19.5693 7.58984 21.8628 9.88334 21.8628 12.7048C21.8628 15.2128 20.0478 17.3083 17.6553 17.7373V18.8923C17.6553 19.4368 17.2098 19.8823 16.6653 19.8823Z" fill="white"/>
</svg>
